<?xml version="1.0" standalone="no"?>
<!DOCTYPE svg PUBLIC "-//W3C//DTD SVG 20010904//EN"
 "http://www.w3.org/TR/2001/REC-SVG-20010904/DTD/svg10.dtd">
<svg version="1.0" xmlns="http://www.w3.org/2000/svg"
 width="1772.000000pt" height="1772.000000pt" viewBox="0 0 1772.000000 1772.000000"
 preserveAspectRatio="xMidYMid meet">
<metadata>
Created by potrace 1.11, written by Peter Selinger 2001-2013
</metadata>
<g transform="translate(0.000000,1772.000000) scale(0.100000,-0.100000)"
fill="#000000" stroke="none">
<path d="M2309 17709 c-317 -21 -616 -103 -914 -248 -505 -247 -901 -647
-1146 -1156 -142 -295 -216 -578 -240 -923 -7 -112 -8 -1598 -3 -5214 l7
-5058 2073 0 2074 0 0 30 0 30 330 0 330 0 0 -30 0 -30 2550 0 2550 0 0 160 0
160 330 0 330 0 0 -160 0 -160 3565 0 3565 0 -3 5198 c-2 4902 -3 5203 -20
5297 -127 724 -494 1299 -1077 1690 -370 248 -768 382 -1225 415 -169 12
-12899 11 -13076 -1z m2501 -9249 l0 -290 273 -2 272 -3 0 -285 0 -285 -273
-3 -273 -2 3 -528 c3 -482 5 -530 21 -567 38 -85 86 -110 209 -108 86 2 178
22 256 58 l52 24 -2 -272 -3 -272 -76 -38 c-145 -71 -334 -101 -549 -86 -183
13 -336 78 -424 180 -46 54 -99 162 -122 249 -16 58 -18 137 -21 712 l-4 647
-137 3 -137 3 0 285 0 285 138 3 137 3 0 289 0 290 330 0 330 0 0 -290z m7051
-275 c188 -38 372 -168 450 -317 l14 -27 75 75 c214 216 475 309 791 282 357
-30 585 -237 660 -600 18 -87 19 -144 19 -925 l0 -833 -330 0 -329 0 -4 713
c-3 762 -2 740 -54 859 -25 55 -87 119 -142 148 -64 32 -167 46 -250 33 -165
-26 -256 -111 -308 -291 -15 -50 -17 -140 -21 -759 l-3 -703 -329 0 -329 0 -4
713 c-3 762 -2 740 -54 859 -25 55 -87 119 -142 148 -64 32 -167 46 -250 33
-165 -26 -256 -111 -308 -291 -15 -50 -17 -140 -21 -759 l-3 -703 -330 0 -329
0 0 1165 0 1165 330 0 330 0 0 -166 0 -165 59 68 c211 245 494 341 812 278z
m-4959 -18 c415 -109 696 -432 788 -904 23 -120 37 -347 26 -436 l-7 -57 -805
0 -804 0 6 -27 c26 -109 105 -241 180 -300 105 -82 217 -117 379 -117 206 0
365 62 512 197 l43 39 28 -23 c115 -98 352 -313 352 -321 0 -18 -175 -185
-239 -228 -207 -139 -423 -200 -706 -200 -366 0 -634 102 -868 329 -234 228
-347 510 -347 872 0 224 40 401 134 586 162 321 426 526 776 604 71 16 116 18
270 15 159 -3 199 -7 282 -29z m2283 12 c130 -17 234 -47 340 -99 256 -124
394 -322 450 -644 13 -74 15 -209 15 -842 l0 -754 -320 0 -320 0 0 115 0 115
-77 -65 c-143 -120 -312 -186 -521 -204 -266 -23 -504 42 -680 186 -95 78
-179 229 -208 373 -20 100 -15 268 11 365 41 151 136 284 264 369 260 173 713
213 1119 100 51 -15 95 -24 97 -22 3 3 1 38 -5 80 -20 159 -79 251 -200 312
-96 48 -181 60 -370 53 -172 -7 -271 -25 -449 -82 -62 -20 -114 -35 -116 -33
-2 2 -40 115 -85 252 -64 195 -78 251 -68 257 28 18 217 87 308 112 233 65
569 88 815 56z"/>
<path d="M6480 7656 c-113 -24 -224 -103 -289 -205 -32 -49 -83 -179 -94 -238
l-6 -33 490 0 490 0 -7 38 c-12 68 -55 186 -85 233 -38 60 -124 141 -178 169
-89 45 -216 59 -321 36z"/>
<path d="M8890 6853 c-249 -14 -392 -128 -392 -313 0 -145 86 -238 250 -271
83 -16 228 -6 314 21 86 26 183 92 229 154 53 70 70 134 67 242 l-3 89 -62 22
c-114 41 -274 63 -403 56z"/>
</g>
</svg>
