<?xml version="1.0" standalone="no"?>
<!DOCTYPE svg PUBLIC "-//W3C//DTD SVG 20010904//EN"
 "http://www.w3.org/TR/2001/REC-SVG-20010904/DTD/svg10.dtd">
<svg version="1.0" xmlns="http://www.w3.org/2000/svg"
 width="1772.000000pt" height="1772.000000pt" viewBox="0 0 1772.000000 1772.000000"
 preserveAspectRatio="xMidYMid meet">
<metadata>
Created by potrace 1.11, written by Peter Selinger 2001-2013
</metadata>
<g transform="translate(0.000000,1772.000000) scale(0.100000,-0.100000)"
fill="#000000" stroke="none">
<path d="M2325 17713 c-498 -40 -950 -210 -1340 -502 -206 -155 -430 -396
-578 -621 -147 -225 -291 -564 -346 -820 -57 -266 -54 -188 -59 -1945 -2 -891
-1 -3687 3 -6213 l7 -4592 8849 0 8849 0 0 6188 c0 6760 4 6292 -56 6561 -165
739 -652 1359 -1329 1691 -289 141 -572 220 -895 250 -78 7 -2185 9 -6590 8
-3561 -1 -6493 -3 -6515 -5z m1225 -4823 l0 -380 350 0 350 0 0 -360 0 -360
-350 0 -351 0 3 -677 c3 -519 7 -687 16 -716 19 -54 75 -113 130 -134 36 -14
71 -18 152 -16 118 2 219 24 324 72 l66 30 -2 -341 -3 -342 -75 -38 c-162 -83
-308 -117 -531 -125 -243 -8 -385 15 -539 89 -203 97 -328 295 -370 583 -6 42
-10 380 -10 843 l0 772 -180 0 -180 0 0 360 0 360 180 0 180 0 0 380 0 380
420 0 420 0 0 -380z m2622 -349 c270 -58 479 -170 663 -355 239 -241 389 -578
435 -981 11 -99 14 -384 4 -434 l-6 -31 -1029 0 c-566 0 -1029 -2 -1029 -4 0
-20 50 -156 79 -216 52 -107 178 -234 281 -283 109 -52 179 -68 323 -74 273
-12 454 51 685 240 65 53 75 58 90 45 94 -80 462 -412 462 -418 0 -17 -160
-177 -234 -234 -235 -181 -459 -270 -771 -307 -142 -17 -422 -6 -550 21 -743
157 -1206 738 -1205 1513 1 432 150 819 428 1109 208 217 443 348 728 407 144
30 142 30 354 26 149 -3 218 -8 292 -24z m6373 14 c103 -18 240 -68 321 -116
81 -49 204 -167 260 -252 27 -39 49 -73 50 -75 0 -1 46 42 100 95 254 249 531
363 877 363 172 -1 302 -23 435 -76 114 -46 184 -94 284 -194 87 -87 101 -108
152 -211 30 -63 64 -148 76 -189 49 -183 50 -205 50 -1312 l0 -1038 -420 0
-419 0 -3 908 c-4 893 -4 908 -25 984 -45 160 -117 254 -240 315 -72 36 -80
37 -198 41 -95 3 -135 0 -181 -13 -167 -48 -273 -163 -326 -352 -22 -77 -22
-86 -26 -980 l-3 -903 -419 0 -419 0 -3 908 c-4 893 -4 908 -25 984 -45 160
-117 254 -240 315 -72 36 -80 37 -198 41 -95 3 -135 0 -181 -13 -167 -48 -273
-163 -326 -352 -22 -77 -22 -86 -26 -980 l-3 -903 -419 0 -420 0 0 1480 0
1480 420 0 420 0 0 -201 0 -202 105 111 c191 200 357 297 578 337 100 18 287
18 392 0z m-3335 -40 c210 -38 419 -122 547 -219 171 -129 300 -325 362 -548
56 -200 54 -166 58 -1220 l4 -978 -411 0 -410 0 0 151 0 151 -67 -62 c-214
-200 -487 -300 -823 -300 -537 0 -921 277 -1005 725 -23 123 -17 346 13 461
94 358 365 576 819 659 119 22 440 31 584 16 124 -13 301 -50 418 -86 l74 -24
-7 82 c-20 257 -138 402 -383 469 -68 19 -104 22 -278 22 -263 0 -434 -30
-707 -123 l-88 -30 -10 37 c-5 20 -52 164 -104 320 l-95 283 67 30 c187 85
482 164 702 188 52 6 111 13 130 15 19 2 143 3 275 1 173 -2 266 -8 335 -20z
m4112 -4578 l3 -1072 485 531 485 532 510 1 509 1 -70 -72 c-131 -135 -987
-1023 -1021 -1059 l-34 -36 580 -892 c320 -491 581 -895 581 -897 0 -2 -219
-3 -486 -2 l-486 3 -382 598 -381 598 -147 -153 -147 -153 -1 -447 0 -448
-420 0 -420 0 0 2020 0 2020 420 0 420 0 2 -1073z m-1082 -391 l0 -443 -122
-6 c-384 -18 -638 -207 -757 -563 -59 -177 -63 -236 -68 -931 l-5 -633 -419 0
-419 0 0 1480 0 1480 420 0 420 0 0 -287 0 -288 55 103 c187 356 445 523 818
531 l77 1 0 -444z m-3475 409 c371 -56 680 -215 932 -478 197 -207 319 -444
384 -749 33 -150 33 -426 1 -586 -63 -315 -198 -569 -422 -792 -208 -208 -439
-340 -725 -415 -131 -34 -302 -55 -443 -55 -632 1 -1174 324 -1442 859 -55
110 -114 291 -136 416 -24 138 -24 395 0 530 60 335 210 614 459 851 228 218
535 367 863 418 123 19 404 20 529 1z m-3410 -910 c153 -492 280 -893 281
-892 2 2 376 1378 449 1652 l32 120 422 3 c399 2 422 1 417 -15 -9 -29 -491
-1586 -677 -2188 -94 -302 -186 -601 -205 -662 l-35 -113 -384 0 -384 0 -41
133 c-23 72 -88 281 -145 462 -57 182 -160 512 -230 735 -69 223 -131 420
-137 438 -12 40 21 136 -318 -928 -122 -382 -231 -726 -244 -765 l-23 -70
-382 0 -383 0 -23 75 c-13 41 -111 363 -219 715 -167 547 -646 2115 -662 2168
-5 16 20 17 424 17 l429 0 45 -167 c25 -93 130 -489 234 -880 104 -392 191
-713 194 -713 3 0 129 398 280 885 l274 885 366 0 366 0 279 -895z"/>
<path d="M5680 11874 c-231 -61 -392 -245 -464 -530 -9 -34 -16 -65 -16 -68 0
-3 283 -6 630 -6 l630 0 -6 33 c-54 308 -222 514 -466 572 -79 19 -236 18
-308 -1z"/>
<path d="M8743 10849 c-172 -13 -301 -66 -383 -156 -63 -69 -91 -142 -92 -242
-1 -94 13 -145 55 -207 157 -233 667 -227 911 10 99 97 137 192 143 366 l5
125 -59 23 c-96 36 -248 71 -336 77 -45 3 -98 7 -117 9 -19 1 -77 -1 -127 -5z"/>
<path d="M8330 7226 c-289 -62 -491 -260 -571 -561 -26 -97 -32 -324 -10 -420
66 -298 283 -533 558 -606 80 -21 283 -31 329 -16 18 6 28 -2 63 -47 68 -90
166 -146 257 -146 55 0 57 15 9 68 -19 21 -39 51 -45 66 -23 60 -5 158 34 186
130 90 238 255 287 435 32 114 32 355 1 468 -75 272 -268 476 -527 557 -90 28
-289 36 -385 16z"/>
</g>
</svg>
